<svg width="52" height="28" viewBox="0 0 52 28" fill="none" xmlns="http://www.w3.org/2000/svg">
<path d="M5.97328 25.7746L5.98123 25.779L5.98925 25.7832C7.53325 26.6003 9.24794 27 11.112 27C12.9759 27 14.6823 26.6003 16.2077 25.7801L16.2077 25.7802L16.2178 25.7746C17.7258 24.9412 18.9319 23.8054 19.8173 22.3724C20.7371 20.9199 21.1911 19.2866 21.1911 17.5006V3.55924C21.1911 2.84777 20.9457 2.19199 20.4083 1.69431C19.8788 1.20394 19.2108 1 18.5073 1C17.8112 1 17.164 1.21155 16.6319 1.67146L16.6189 1.68266L16.6063 1.69431C16.0689 2.19198 15.8236 2.84777 15.8236 3.55924V9.62759C15.3987 9.34728 14.945 9.09997 14.4635 8.8855C13.2241 8.3129 11.8823 8.03185 10.4517 8.03185C8.68368 8.03185 7.06547 8.44837 5.62335 9.29903C4.19615 10.1205 3.05998 11.2544 2.2255 12.6863L2.22548 12.6863L2.22249 12.6915C1.40012 14.1223 1 15.7343 1 17.5006C1 19.2833 1.44116 20.9146 2.33751 22.3672L2.33744 22.3672L2.34404 22.3776C3.25061 23.8071 4.4657 24.9414 5.97328 25.7746ZM13.6154 13.4133L13.623 13.4176L13.6307 13.4219C14.3579 13.826 14.9209 14.3734 15.3355 15.0746C15.7411 15.7605 15.9556 16.5594 15.9556 17.5006C15.9556 18.4175 15.7428 19.2214 15.3304 19.9355C14.9136 20.657 14.349 21.2229 13.6231 21.6447C12.9094 22.0395 12.081 22.2484 11.112 22.2484C10.1708 22.2484 9.33901 22.042 8.59651 21.6421C7.87149 21.2199 7.29468 20.6524 6.85606 19.9275C6.44664 19.2154 6.23543 18.4141 6.23543 17.5006C6.23543 16.5631 6.44828 15.7667 6.85078 15.0827C7.2884 14.3764 7.86523 13.8265 8.5934 13.4219L8.59341 13.4219L8.5994 13.4185C9.34244 12.999 10.1728 12.7834 11.112 12.7834C12.0773 12.7834 12.9027 13.0007 13.6154 13.4133Z" fill="url(#paint0_linear_1001_219)" stroke="url(#paint1_linear_1001_219)" stroke-width="2"/>
<rect x="22.1911" y="5.93188" width="7.18773" height="2.54777" rx="1.27389" fill="url(#paint2_linear_1001_219)"/>
<rect x="22.8444" y="9.32861" width="5.88086" height="2.54777" rx="1.27389" fill="url(#paint3_linear_1001_219)"/>
<rect x="23.4977" y="12.7261" width="4.57401" height="2.54777" rx="1.27389" fill="url(#paint4_linear_1001_219)"/>
<rect x="24.151" y="16.1223" width="3.26715" height="2.54777" rx="1.27389" fill="url(#paint5_linear_1001_219)"/>
<rect x="24.8043" y="19.5203" width="1.96029" height="2.54777" rx="0.980143" fill="url(#paint6_linear_1001_219)"/>
<path d="M35.3521 25.7746L35.352 25.7747L35.3622 25.7801C36.8876 26.6003 38.594 27 40.4578 27C42.3414 27 44.0592 26.6013 45.5865 25.7801L45.5865 25.7802L45.5966 25.7746C47.1046 24.9412 48.3106 23.8054 49.1961 22.3724C50.1159 20.9199 50.5698 19.2866 50.5698 17.5006C50.5698 15.7325 50.1578 14.1193 49.3128 12.6888C48.4998 11.2549 47.3734 10.1204 45.9465 9.29904C44.5044 8.44838 42.8862 8.03185 41.1181 8.03185C39.6862 8.03185 38.3432 8.31342 37.1029 8.88709C36.6247 9.10423 36.1722 9.35458 35.7463 9.63806V3.55924C35.7463 2.84777 35.5009 2.19198 34.9635 1.69431C34.434 1.20394 33.766 1 33.0625 1C32.3664 1 31.7192 1.21155 31.1871 1.67146L31.1741 1.68266L31.1615 1.69431C30.6241 2.19198 30.3788 2.84777 30.3788 3.55924V17.5006H30.3787L30.3789 17.5143C30.4032 19.2927 30.8556 20.9188 31.7493 22.3672C32.635 23.8026 33.8422 24.9402 35.3521 25.7746ZM44.6856 19.9195L44.6808 19.9274L44.6761 19.9355C44.2594 20.657 43.6948 21.2229 42.9688 21.6447C42.2552 22.0395 41.4268 22.2484 40.4578 22.2484C39.5166 22.2484 38.6848 22.042 37.9423 21.6421C37.2185 21.2206 36.6553 20.6555 36.2395 19.9355C35.827 19.2214 35.6142 18.4175 35.6142 17.5006C35.6142 16.5594 35.8287 15.7605 36.2343 15.0746C36.649 14.3734 37.2119 13.826 37.9392 13.4219L37.9392 13.4219L37.9452 13.4185C38.6882 12.999 39.5186 12.7834 40.4578 12.7834C41.4231 12.7834 42.2485 13.0007 42.9612 13.4133L42.9688 13.4176L42.9764 13.4219C43.7037 13.826 44.2667 14.3734 44.6813 15.0746L44.6861 15.0827L44.691 15.0907C45.1128 15.7742 45.3344 16.5674 45.3344 17.5006C45.3344 18.4095 45.1146 19.2076 44.6856 19.9195Z" fill="url(#paint7_linear_1001_219)" stroke="url(#paint8_linear_1001_219)" stroke-width="2"/>
<defs>
<linearGradient id="paint0_linear_1001_219" x1="27.5158" y1="60.7027" x2="-12.3773" y2="53.3744" gradientUnits="userSpaceOnUse">
<stop offset="0.0602722" stop-color="#FF00A1"/>
<stop offset="0.554299" stop-color="#FF0031"/>
<stop offset="0.933911" stop-color="#FFC400"/>
</linearGradient>
<linearGradient id="paint1_linear_1001_219" x1="27.5158" y1="60.7027" x2="-12.3773" y2="53.3744" gradientUnits="userSpaceOnUse">
<stop offset="0.0602722" stop-color="#FF00A1"/>
<stop offset="0.554299" stop-color="#FF0031"/>
<stop offset="0.933911" stop-color="#FFC400"/>
</linearGradient>
<linearGradient id="paint2_linear_1001_219" x1="32.273" y1="12.1636" x2="21.1693" y2="4.57155" gradientUnits="userSpaceOnUse">
<stop offset="0.0602722" stop-color="#FF00A1"/>
<stop offset="0.554299" stop-color="#FF0031"/>
<stop offset="0.933911" stop-color="#FFC400"/>
</linearGradient>
<linearGradient id="paint3_linear_1001_219" x1="31.0932" y1="15.5603" x2="20.939" y2="9.87982" gradientUnits="userSpaceOnUse">
<stop offset="0.0602722" stop-color="#FF00A1"/>
<stop offset="0.554299" stop-color="#FF0031"/>
<stop offset="0.933911" stop-color="#FFC400"/>
</linearGradient>
<linearGradient id="paint4_linear_1001_219" x1="29.9135" y1="18.9578" x2="21.1948" y2="15.1642" gradientUnits="userSpaceOnUse">
<stop offset="0.0602722" stop-color="#FF00A1"/>
<stop offset="0.554299" stop-color="#FF0031"/>
<stop offset="0.933911" stop-color="#FFC400"/>
</linearGradient>
<linearGradient id="paint5_linear_1001_219" x1="28.7337" y1="22.354" x2="21.9795" y2="20.2549" gradientUnits="userSpaceOnUse">
<stop offset="0.0602722" stop-color="#FF00A1"/>
<stop offset="0.554299" stop-color="#FF0031"/>
<stop offset="0.933911" stop-color="#FFC400"/>
</linearGradient>
<linearGradient id="paint6_linear_1001_219" x1="27.554" y1="25.752" x2="23.2593" y2="24.9511" gradientUnits="userSpaceOnUse">
<stop offset="0.0602722" stop-color="#FF00A1"/>
<stop offset="0.554299" stop-color="#FF0031"/>
<stop offset="0.933911" stop-color="#FFC400"/>
</linearGradient>
<linearGradient id="paint7_linear_1001_219" x1="56.8946" y1="60.7027" x2="17.0014" y2="53.3744" gradientUnits="userSpaceOnUse">
<stop offset="0.0602722" stop-color="#FF00A1"/>
<stop offset="0.554299" stop-color="#FF0031"/>
<stop offset="0.933911" stop-color="#FFC400"/>
</linearGradient>
<linearGradient id="paint8_linear_1001_219" x1="56.8946" y1="60.7027" x2="17.0014" y2="53.3744" gradientUnits="userSpaceOnUse">
<stop offset="0.0602722" stop-color="#FF00A1"/>
<stop offset="0.554299" stop-color="#FF0031"/>
<stop offset="0.933911" stop-color="#FFC400"/>
</linearGradient>
</defs>
</svg>
